<?xml version="1.0" standalone="no"?>
<!DOCTYPE svg PUBLIC "-//W3C//DTD SVG 20010904//EN"
 "http://www.w3.org/TR/2001/REC-SVG-20010904/DTD/svg10.dtd">
<svg version="1.0" xmlns="http://www.w3.org/2000/svg"
 width="32.000000pt" height="32.000000pt" viewBox="0 0 32.000000 32.000000"
 preserveAspectRatio="xMidYMid meet">

<g transform="translate(0.000000,32.000000) scale(0.100000,-0.100000)"
fill="#000000" stroke="none">
<path d="M185 261 c0 -51 14 -65 55 -56 36 8 35 29 -3 33 -19 2 -27 10 -29 29
-5 42 -23 37 -23 -6z"/>
<path d="M78 267 c7 -8 10 -27 6 -44 -6 -33 10 -53 28 -35 15 15 48 -19 35
-35 -11 -15 20 -18 42 -4 11 7 9 11 -8 21 -16 8 -20 17 -16 31 4 12 2 19 -5
17 -7 -2 -20 11 -29 27 -10 17 -28 31 -41 33 -20 3 -22 1 -12 -11z"/>
<path d="M217 134 c-16 -9 -35 -13 -43 -10 -8 3 -14 1 -14 -5 0 -7 -21 -10
-55 -7 -62 3 -59 -11 5 -19 44 -6 37 -23 -10 -23 -22 0 -23 -1 -8 -16 14 -14
18 -14 46 0 17 9 35 22 39 29 4 7 22 19 40 26 17 7 34 19 37 27 7 18 -2 17
-37 -2z"/>
<path d="M243 66 c14 -30 40 -44 35 -20 -2 9 -13 23 -25 31 -21 14 -22 14 -10
-11z"/>
</g>
</svg>
